<?xml version="1.0" encoding="utf-8"?>
<!-- Generator: Adobe Illustrator 16.0.0, SVG Export Plug-In . SVG Version: 6.00 Build 0)  -->
<!DOCTYPE svg PUBLIC "-//W3C//DTD SVG 1.1//EN" "http://www.w3.org/Graphics/SVG/1.1/DTD/svg11.dtd">
<svg version="1.1" xmlns="http://www.w3.org/2000/svg" xmlns:xlink="http://www.w3.org/1999/xlink" x="0px" y="0px"
	 width="89.104px" height="132.926px" viewBox="0 0 89.104 132.926" enable-background="new 0 0 89.104 132.926"
	 xml:space="preserve">
<g id="fire" display="none">
	<linearGradient id="SVGID_1_" gradientUnits="userSpaceOnUse" x1="45.25" y1="65.9917" x2="45.25" y2="129.9263">
		<stop  offset="0" style="stop-color:#FBB03B"/>
		<stop  offset="1" style="stop-color:#F2F2F2"/>
	</linearGradient>
	<polygon display="inline" fill="url(#SVGID_1_)" points="8.338,129.926 45.25,65.992 82.162,129.926 	"/>
</g>
<g id="clous">
	<path fill="#FFFFFF" stroke="#231F20" stroke-width="4" stroke-miterlimit="10" d="M66.551,100.926
		c-0.578,0-1.145,0.04-1.705,0.104c-3.271-7.7-10.902-13.102-19.796-13.102S28.525,93.33,25.254,101.03
		c-0.56-0.063-1.127-0.104-1.704-0.104c-8.284,0-15,6.716-15,15s6.716,15,15,15c3.691,0,7.065-1.339,9.679-3.551
		c3.393,2.239,7.452,3.551,11.82,3.551c4.369,0,8.429-1.312,11.821-3.551c2.613,2.211,5.988,3.551,9.68,3.551
		c8.284,0,15-6.716,15-15S74.835,100.926,66.551,100.926z"/>
</g>
<g id="Layer_1">
	<path fill="#EA5744" stroke="#231F20" stroke-width="4" stroke-miterlimit="10" d="M20.541,65.032c0,0-6.731,4.367-11.397,10.234
		c-3.225,4.056-6.534,13.713-6.774,14.859c-0.541,2.587-0.328,10.599-0.328,10.599s6.97-10.27,8.551-12.383
		c1.147-1.533,10.955-8.948,10.955-8.948"/>
	<path fill="#EA5744" stroke="#231F20" stroke-width="4" stroke-miterlimit="10" d="M5.137,86.666"/>
	<path fill="#EA5744" stroke="#231F20" stroke-width="4" stroke-miterlimit="10" d="M68.562,65.032c0,0,6.731,4.367,11.397,10.234
		c3.226,4.056,6.534,13.713,6.774,14.859c0.541,2.587,0.328,10.599,0.328,10.599s-6.971-10.27-8.551-12.383
		c-1.148-1.533-10.955-8.948-10.955-8.948"/>
	<path fill="#C4C8CC" stroke="#231F20" stroke-width="4" stroke-miterlimit="10" d="M65.527,92.712
		c2.145-8.874,3.379-19.231,3.379-30.301c0-32.827-24.182-59.438-24.182-59.438s-24.184,26.61-24.184,59.438
		c0,11.069,1.234,21.427,3.378,30.301H65.527z"/>
	
		<ellipse fill="#FFFFFF" stroke="#231F20" stroke-width="4" stroke-miterlimit="10" cx="44.723" cy="52.212" rx="10.781" ry="11.072"/>
	<line fill="none" stroke="#231F20" stroke-width="4" stroke-miterlimit="10" x1="29.285" y1="26.821" x2="60.162" y2="26.821"/>
	<line fill="none" stroke="#231F20" stroke-width="4" stroke-miterlimit="10" x1="21.83" y1="81.569" x2="67.617" y2="81.569"/>
</g>
</svg>
